<svg width="834" height="34" viewBox="0 0 834 34" fill="none" xmlns="http://www.w3.org/2000/svg">
<path d="M197.8 8.152C199.576 8.152 201.128 8.504 202.456 9.208C203.784 9.912 204.808 10.904 205.528 12.184C206.264 13.448 206.632 14.912 206.632 16.576C206.632 18.224 206.264 19.688 205.528 20.968C204.808 22.248 203.776 23.24 202.432 23.944C201.104 24.648 199.56 25 197.8 25H191.488V8.152H197.8ZM197.536 21.448C199.088 21.448 200.296 21.024 201.16 20.176C202.024 19.328 202.456 18.128 202.456 16.576C202.456 15.024 202.024 13.816 201.16 12.952C200.296 12.088 199.088 11.656 197.536 11.656H195.592V21.448H197.536ZM213.15 8.152V25H209.046V8.152H213.15ZM228.364 8.152V11.44H223.9V25H219.796V11.44H215.332V8.152H228.364ZM234.647 21.832H240.023V25H230.543V8.152H234.647V21.832ZM252.589 22.024H246.301L245.293 25H240.997L247.093 8.152H251.845L257.941 25H253.597L252.589 22.024ZM251.533 18.856L249.445 12.688L247.381 18.856H251.533ZM274.988 25H270.884L264.02 14.608V25H259.916V8.152H264.02L270.884 18.592V8.152H274.988V25ZM277.387 16.552C277.387 14.888 277.747 13.408 278.467 12.112C279.187 10.8 280.187 9.784 281.467 9.064C282.763 8.328 284.227 7.96 285.859 7.96C287.859 7.96 289.571 8.488 290.995 9.544C292.419 10.6 293.371 12.04 293.851 13.864H289.339C289.003 13.16 288.523 12.624 287.899 12.256C287.291 11.888 286.595 11.704 285.811 11.704C284.547 11.704 283.523 12.144 282.739 13.024C281.955 13.904 281.563 15.08 281.563 16.552C281.563 18.024 281.955 19.2 282.739 20.08C283.523 20.96 284.547 21.4 285.811 21.4C286.595 21.4 287.291 21.216 287.899 20.848C288.523 20.48 289.003 19.944 289.339 19.24H293.851C293.371 21.064 292.419 22.504 290.995 23.56C289.571 24.6 287.859 25.12 285.859 25.12C284.227 25.12 282.763 24.76 281.467 24.04C280.187 23.304 279.187 22.288 278.467 20.992C277.747 19.696 277.387 18.216 277.387 16.552ZM300.588 11.44V14.848H306.084V18.016H300.588V21.712H306.804V25H296.484V8.152H306.804V11.44H300.588Z" fill="#282938"/>
<path fill-rule="evenodd" clip-rule="evenodd" d="M157.6 5.80005C156.857 5.80005 156.145 6.09505 155.62 6.62015C155.095 7.14525 154.8 7.85744 154.8 8.60005V24C154.8 25.114 155.242 26.1822 156.03 26.9699C156.818 27.7576 157.886 28.2 159 28.2C160.114 28.2 161.182 27.7576 161.97 26.9699C162.757 26.1822 163.2 25.114 163.2 24V8.60005C163.2 7.85744 162.905 7.14525 162.38 6.62015C161.855 6.09505 161.143 5.80005 160.4 5.80005H157.6ZM159 25.4C159.371 25.4 159.727 25.2525 159.99 24.99C160.252 24.7274 160.4 24.3714 160.4 24C160.4 23.6287 160.252 23.2726 159.99 23.0101C159.727 22.7475 159.371 22.6 159 22.6C158.629 22.6 158.273 22.7475 158.01 23.0101C157.747 23.2726 157.6 23.6287 157.6 24C157.6 24.3714 157.747 24.7274 158.01 24.99C158.273 25.2525 158.629 25.4 159 25.4ZM166 22.9402L172.86 16.0802C173.385 15.5552 173.68 14.8431 173.68 14.1006C173.68 13.3582 173.385 12.6461 172.86 12.121L170.879 10.14C170.354 9.61513 169.642 9.32025 168.899 9.32025C168.157 9.32025 167.445 9.61513 166.92 10.14L166 11.0598V22.9402ZM174.4 28.2H164.699L173.099 19.8H174.4C175.143 19.8 175.855 20.095 176.38 20.6202C176.905 21.1453 177.2 21.8574 177.2 22.6V25.4C177.2 26.1427 176.905 26.8548 176.38 27.3799C175.855 27.905 175.143 28.2 174.4 28.2Z" fill="#282938"/>
<path d="M43.592 21.832H48.968V25H39.488V8.152H43.592V21.832ZM59.0135 25.168C57.4295 25.168 55.9735 24.8 54.6455 24.064C53.3335 23.328 52.2855 22.304 51.5015 20.992C50.7335 19.664 50.3495 18.176 50.3495 16.528C50.3495 14.88 50.7335 13.4 51.5015 12.088C52.2855 10.776 53.3335 9.752 54.6455 9.016C55.9735 8.28 57.4295 7.912 59.0135 7.912C60.5975 7.912 62.0455 8.28 63.3575 9.016C64.6855 9.752 65.7255 10.776 66.4775 12.088C67.2455 13.4 67.6295 14.88 67.6295 16.528C67.6295 18.176 67.2455 19.664 66.4775 20.992C65.7095 22.304 64.6695 23.328 63.3575 24.064C62.0455 24.8 60.5975 25.168 59.0135 25.168ZM59.0135 21.424C60.3575 21.424 61.4295 20.976 62.2295 20.08C63.0455 19.184 63.4535 18 63.4535 16.528C63.4535 15.04 63.0455 13.856 62.2295 12.976C61.4295 12.08 60.3575 11.632 59.0135 11.632C57.6535 11.632 56.5655 12.072 55.7495 12.952C54.9495 13.832 54.5495 15.024 54.5495 16.528C54.5495 18.016 54.9495 19.208 55.7495 20.104C56.5655 20.984 57.6535 21.424 59.0135 21.424ZM78.6247 25L75.1207 18.64H74.1367V25H70.0327V8.152H76.9207C78.2487 8.152 79.3767 8.384 80.3047 8.848C81.2487 9.312 81.9527 9.952 82.4167 10.768C82.8807 11.568 83.1127 12.464 83.1127 13.456C83.1127 14.576 82.7927 15.576 82.1527 16.456C81.5287 17.336 80.6007 17.96 79.3687 18.328L83.2567 25H78.6247ZM74.1367 15.736H76.6807C77.4327 15.736 77.9927 15.552 78.3607 15.184C78.7447 14.816 78.9367 14.296 78.9367 13.624C78.9367 12.984 78.7447 12.48 78.3607 12.112C77.9927 11.744 77.4327 11.56 76.6807 11.56H74.1367V15.736ZM89.9129 11.44V14.848H95.4089V18.016H89.9129V21.712H96.1289V25H85.8089V8.152H96.1289V11.44H89.9129ZM117.993 8.152V25H113.889V14.896L110.121 25H106.809L103.017 14.872V25H98.9133V8.152H103.761L108.489 19.816L113.169 8.152H117.993Z" fill="#282938"/>
<path d="M11.8 23C11.8 23.7956 11.5471 24.5587 11.0971 25.1213C10.647 25.6839 10.0365 26 9.4 26C8.76348 26 8.15303 25.6839 7.70294 25.1213C7.25286 24.5587 7 23.7956 7 23C7 22.2044 7.25286 21.4413 7.70294 20.8787C8.15303 20.3161 8.76348 20 9.4 20C10.0365 20 10.647 20.3161 11.0971 20.8787C11.5471 21.4413 11.8 22.2044 11.8 23ZM23 23C23 23.7956 22.7471 24.5587 22.2971 25.1213C21.847 25.6839 21.2365 26 20.6 26C19.9635 26 19.353 25.6839 18.9029 25.1213C18.4529 24.5587 18.2 23.7956 18.2 23C18.2 22.2044 18.4529 21.4413 18.9029 20.8787C19.353 20.3161 19.9635 20 20.6 20C21.2365 20 21.847 20.3161 22.2971 20.8787C22.7471 21.4413 23 22.2044 23 23Z" fill="black"/>
<path d="M4.39921 7C4.0279 7 3.67181 7.1475 3.40926 7.41005C3.14671 7.6726 2.99921 8.0287 2.99921 8.4V22.4C2.99921 22.7713 3.14671 23.1274 3.40926 23.3899C3.67181 23.6525 4.0279 23.8 4.39921 23.8H5.86921C6.02987 23.0088 6.45912 22.2975 7.08423 21.7865C7.70933 21.2756 8.49186 20.9965 9.29921 20.9965C10.1066 20.9965 10.8891 21.2756 11.5142 21.7865C12.1393 22.2975 12.5685 23.0088 12.7292 23.8H14.1992C14.5705 23.8 14.9266 23.6525 15.1892 23.3899C15.4517 23.1274 15.5992 22.7713 15.5992 22.4V8.4C15.5992 8.0287 15.4517 7.6726 15.1892 7.41005C14.9266 7.1475 14.5705 7 14.1992 7H4.39921ZM19.7992 11.2C19.4279 11.2 19.0718 11.3475 18.8093 11.6101C18.5467 11.8726 18.3992 12.2287 18.3992 12.6V21.07C18.8496 20.978 19.3138 20.9756 19.7652 21.063C20.2165 21.1504 20.6462 21.3259 21.0298 21.5794C21.4133 21.8329 21.7431 22.1595 22.0004 22.5405C22.2577 22.9216 22.4374 23.3495 22.5292 23.8H23.9992C24.3705 23.8 24.7266 23.6525 24.9892 23.3899C25.2517 23.1274 25.3992 22.7713 25.3992 22.4L25.1984 15.4C25.1983 15.0288 25.1984 11.4 25.1984 11.4H22.1984C22.1984 11.4 21.5705 11.2001 21.1992 11.2H19.7992Z" fill="black"/>
<path d="M387.456 25.168C385.872 25.168 384.416 24.8 383.088 24.064C381.776 23.328 380.728 22.304 379.944 20.992C379.176 19.664 378.792 18.176 378.792 16.528C378.792 14.88 379.176 13.4 379.944 12.088C380.728 10.776 381.776 9.752 383.088 9.016C384.416 8.28 385.872 7.912 387.456 7.912C389.04 7.912 390.488 8.28 391.8 9.016C393.128 9.752 394.168 10.776 394.92 12.088C395.688 13.4 396.072 14.88 396.072 16.528C396.072 18.176 395.688 19.664 394.92 20.992C394.152 22.304 393.112 23.328 391.8 24.064C390.488 24.8 389.04 25.168 387.456 25.168ZM387.456 21.424C388.8 21.424 389.872 20.976 390.672 20.08C391.488 19.184 391.896 18 391.896 16.528C391.896 15.04 391.488 13.856 390.672 12.976C389.872 12.08 388.8 11.632 387.456 11.632C386.096 11.632 385.008 12.072 384.192 12.952C383.392 13.832 382.992 15.024 382.992 16.528C382.992 18.016 383.392 19.208 384.192 20.104C385.008 20.984 386.096 21.424 387.456 21.424ZM421.659 8.152L417.267 25H412.299L409.611 13.912L406.827 25H401.859L397.587 8.152H401.979L404.403 20.416L407.403 8.152H411.915L414.795 20.416L417.243 8.152H421.659ZM435.957 8.152V11.44H431.493V25H427.389V11.44H422.925V8.152H435.957ZM452.729 8.152V25H448.625V18.064H442.241V25H438.137V8.152H442.241V14.752H448.625V8.152H452.729ZM459.916 11.44V14.848H465.412V18.016H459.916V21.712H466.132V25H455.812V8.152H466.132V11.44H459.916ZM475.012 25.168C473.78 25.168 472.676 24.968 471.7 24.568C470.724 24.168 469.94 23.576 469.348 22.792C468.772 22.008 468.468 21.064 468.436 19.96H472.804C472.868 20.584 473.084 21.064 473.452 21.4C473.82 21.72 474.3 21.88 474.892 21.88C475.5 21.88 475.98 21.744 476.332 21.472C476.684 21.184 476.86 20.792 476.86 20.296C476.86 19.88 476.716 19.536 476.428 19.264C476.156 18.992 475.812 18.768 475.396 18.592C474.996 18.416 474.42 18.216 473.668 17.992C472.58 17.656 471.692 17.32 471.004 16.984C470.316 16.648 469.724 16.152 469.228 15.496C468.732 14.84 468.484 13.984 468.484 12.928C468.484 11.36 469.052 10.136 470.188 9.256C471.324 8.36 472.804 7.912 474.628 7.912C476.484 7.912 477.98 8.36 479.116 9.256C480.252 10.136 480.86 11.368 480.94 12.952H476.5C476.468 12.408 476.268 11.984 475.9 11.68C475.532 11.36 475.06 11.2 474.484 11.2C473.988 11.2 473.588 11.336 473.284 11.608C472.98 11.864 472.828 12.24 472.828 12.736C472.828 13.28 473.084 13.704 473.596 14.008C474.108 14.312 474.908 14.64 475.996 14.992C477.084 15.36 477.964 15.712 478.636 16.048C479.324 16.384 479.916 16.872 480.412 17.512C480.908 18.152 481.156 18.976 481.156 19.984C481.156 20.944 480.908 21.816 480.412 22.6C479.932 23.384 479.228 24.008 478.3 24.472C477.372 24.936 476.276 25.168 475.012 25.168ZM495.922 8.152V11.44H491.458V25H487.354V11.44H482.89V8.152H495.922Z" fill="#282938"/>
<path d="M355.4 26.8C355.4 27.0386 355.461 27.2731 355.577 27.4815C355.694 27.6898 355.861 27.8649 356.064 27.9903C356.267 28.1157 356.499 28.1871 356.737 28.1979C356.975 28.2086 357.212 28.1583 357.426 28.0516L363.026 25.2516C363.258 25.1354 363.454 24.9568 363.591 24.7358C363.727 24.5147 363.8 24.26 363.8 24V15.9304C363.8 15.6919 363.739 15.4573 363.623 15.249C363.506 15.0407 363.339 14.8655 363.136 14.7402C362.933 14.6148 362.701 14.5433 362.463 14.5326C362.225 14.5219 361.988 14.5722 361.774 14.6788L356.174 17.4788C355.942 17.595 355.746 17.7736 355.609 17.9947C355.473 18.2158 355.4 18.4705 355.4 18.7304V26.8ZM361.295 11.7864C361.528 11.67 361.723 11.4913 361.859 11.2703C361.996 11.0493 362.068 10.7946 362.068 10.5348C362.068 10.2751 361.996 10.0204 361.859 9.79938C361.723 9.57834 361.528 9.39963 361.295 9.28323L354.626 5.94843C354.431 5.85133 354.217 5.80078 354 5.80078C353.783 5.80078 353.569 5.85133 353.374 5.94843L346.705 9.28323C346.472 9.39963 346.277 9.57834 346.141 9.79938C346.004 10.0204 345.932 10.2751 345.932 10.5348C345.932 10.7946 346.004 11.0493 346.141 11.2703C346.277 11.4913 346.472 11.67 346.705 11.7864L353.374 15.1212C353.569 15.2183 353.783 15.2689 354 15.2689C354.217 15.2689 354.431 15.2183 354.626 15.1212L361.295 11.7864ZM346.226 14.6788C346.012 14.5722 345.775 14.5219 345.537 14.5326C345.299 14.5433 345.067 14.6148 344.864 14.7402C344.661 14.8655 344.494 15.0407 344.377 15.249C344.261 15.4573 344.2 15.6919 344.2 15.9304V24C344.2 24.26 344.273 24.5147 344.409 24.7358C344.546 24.9568 344.742 25.1354 344.974 25.2516L350.574 28.0516C350.788 28.1583 351.025 28.2086 351.263 28.1979C351.501 28.1871 351.733 28.1157 351.936 27.9903C352.139 27.8649 352.306 27.6898 352.423 27.4815C352.539 27.2731 352.6 27.0386 352.6 26.8V18.7304C352.6 18.4705 352.527 18.2158 352.391 17.9947C352.254 17.7736 352.058 17.595 351.826 17.4788L346.226 14.6788Z" fill="black"/>
<path d="M583.56 25H579.456L572.592 14.608V25H568.488V8.152H572.592L579.456 18.592V8.152H583.56V25ZM590.759 11.44V14.848H596.255V18.016H590.759V21.712H596.975V25H586.655V8.152H596.975V11.44H590.759ZM607.727 25.168C606.143 25.168 604.687 24.8 603.359 24.064C602.047 23.328 600.999 22.304 600.215 20.992C599.447 19.664 599.063 18.176 599.063 16.528C599.063 14.88 599.447 13.4 600.215 12.088C600.999 10.776 602.047 9.752 603.359 9.016C604.687 8.28 606.143 7.912 607.727 7.912C609.311 7.912 610.759 8.28 612.071 9.016C613.399 9.752 614.439 10.776 615.191 12.088C615.959 13.4 616.343 14.88 616.343 16.528C616.343 18.176 615.959 19.664 615.191 20.992C614.423 22.304 613.383 23.328 612.071 24.064C610.759 24.8 609.311 25.168 607.727 25.168ZM607.727 21.424C609.071 21.424 610.143 20.976 610.943 20.08C611.759 19.184 612.167 18 612.167 16.528C612.167 15.04 611.759 13.856 610.943 12.976C610.143 12.08 609.071 11.632 607.727 11.632C606.367 11.632 605.279 12.072 604.463 12.952C603.663 13.832 603.263 15.024 603.263 16.528C603.263 18.016 603.663 19.208 604.463 20.104C605.279 20.984 606.367 21.424 607.727 21.424ZM634.562 8.152L628.586 25H623.45L617.474 8.152H621.842L626.018 20.872L630.218 8.152H634.562ZM646.886 22.024H640.598L639.59 25H635.294L641.39 8.152H646.142L652.238 25H647.894L646.886 22.024ZM645.83 18.856L643.742 12.688L641.678 18.856H645.83ZM660.309 25.168C659.077 25.168 657.973 24.968 656.997 24.568C656.021 24.168 655.237 23.576 654.645 22.792C654.069 22.008 653.765 21.064 653.733 19.96H658.101C658.165 20.584 658.381 21.064 658.749 21.4C659.117 21.72 659.597 21.88 660.189 21.88C660.797 21.88 661.277 21.744 661.629 21.472C661.981 21.184 662.157 20.792 662.157 20.296C662.157 19.88 662.013 19.536 661.725 19.264C661.453 18.992 661.109 18.768 660.693 18.592C660.293 18.416 659.717 18.216 658.965 17.992C657.877 17.656 656.989 17.32 656.301 16.984C655.613 16.648 655.021 16.152 654.525 15.496C654.029 14.84 653.781 13.984 653.781 12.928C653.781 11.36 654.349 10.136 655.485 9.256C656.621 8.36 658.101 7.912 659.925 7.912C661.781 7.912 663.277 8.36 664.413 9.256C665.549 10.136 666.157 11.368 666.237 12.952H661.797C661.765 12.408 661.565 11.984 661.197 11.68C660.829 11.36 660.357 11.2 659.781 11.2C659.285 11.2 658.885 11.336 658.581 11.608C658.277 11.864 658.125 12.24 658.125 12.736C658.125 13.28 658.381 13.704 658.893 14.008C659.405 14.312 660.205 14.64 661.293 14.992C662.381 15.36 663.261 15.712 663.933 16.048C664.621 16.384 665.213 16.872 665.709 17.512C666.205 18.152 666.453 18.976 666.453 19.984C666.453 20.944 666.205 21.816 665.709 22.6C665.229 23.384 664.525 24.008 663.597 24.472C662.669 24.936 661.573 25.168 660.309 25.168ZM673.203 8.152V25H669.099V8.152H673.203Z" fill="#282938"/>
<path fill-rule="evenodd" clip-rule="evenodd" d="M543 28.2C545.97 28.2 548.819 27.0201 550.92 24.9196C553.02 22.8192 554.2 19.9705 554.2 17C554.2 14.0296 553.02 11.1809 550.92 9.08045C548.819 6.98005 545.97 5.80005 543 5.80005C540.03 5.80005 537.181 6.98005 535.08 9.08045C532.98 11.1809 531.8 14.0296 531.8 17C531.8 19.9705 532.98 22.8192 535.08 24.9196C537.181 27.0201 540.03 28.2 543 28.2ZM535.065 14.2378C535.585 12.7493 536.512 11.4366 537.742 10.4494C538.117 11.022 538.764 11.4 539.5 11.4C540.057 11.4 540.591 11.6213 540.985 12.0151C541.379 12.409 541.6 12.9431 541.6 13.5V14.2C541.6 14.9427 541.895 15.6548 542.42 16.1799C542.945 16.705 543.657 17 544.4 17C545.143 17 545.855 16.705 546.38 16.1799C546.905 15.6548 547.2 14.9427 547.2 14.2C547.2 13.5734 547.41 12.9649 547.796 12.4717C548.183 11.9785 548.724 11.6293 549.332 11.4798C550.668 13.0082 551.403 14.9701 551.4 17C551.4 17.476 551.361 17.945 551.284 18.4H550C549.257 18.4 548.545 18.695 548.02 19.2201C547.495 19.7453 547.2 20.4574 547.2 21.2V24.2758C545.924 25.0144 544.475 25.4022 543 25.4V22.6C543 21.8574 542.705 21.1453 542.18 20.6202C541.655 20.095 540.943 19.8 540.2 19.8C539.457 19.8 538.745 19.505 538.22 18.9799C537.695 18.4548 537.4 17.7427 537.4 17C537.4 16.3378 537.166 15.697 536.738 15.1913C536.311 14.6856 535.718 14.3478 535.065 14.2378Z" fill="black"/>
<path d="M750.456 25.168C748.872 25.168 747.416 24.8 746.088 24.064C744.776 23.328 743.728 22.304 742.944 20.992C742.176 19.664 741.792 18.176 741.792 16.528C741.792 14.88 742.176 13.4 742.944 12.088C743.728 10.776 744.776 9.752 746.088 9.016C747.416 8.28 748.872 7.912 750.456 7.912C752.04 7.912 753.488 8.28 754.8 9.016C756.128 9.752 757.168 10.776 757.92 12.088C758.688 13.4 759.072 14.88 759.072 16.528C759.072 18.176 758.688 19.664 757.92 20.992C757.152 22.304 756.112 23.328 754.8 24.064C753.488 24.8 752.04 25.168 750.456 25.168ZM750.456 21.424C751.8 21.424 752.872 20.976 753.672 20.08C754.488 19.184 754.896 18 754.896 16.528C754.896 15.04 754.488 13.856 753.672 12.976C752.872 12.08 751.8 11.632 750.456 11.632C749.096 11.632 748.008 12.072 747.192 12.952C746.392 13.832 745.992 15.024 745.992 16.528C745.992 18.016 746.392 19.208 747.192 20.104C748.008 20.984 749.096 21.424 750.456 21.424ZM776.547 25H772.443L765.579 14.608V25H761.475V8.152H765.579L772.443 18.592V8.152H776.547V25ZM790.13 22.024H783.842L782.834 25H778.538L784.634 8.152H789.386L795.482 25H791.138L790.13 22.024ZM789.074 18.856L786.986 12.688L784.922 18.856H789.074ZM808.641 13.48C808.337 12.92 807.897 12.496 807.321 12.208C806.761 11.904 806.097 11.752 805.329 11.752C804.001 11.752 802.937 12.192 802.137 13.072C801.337 13.936 800.937 15.096 800.937 16.552C800.937 18.104 801.353 19.32 802.185 20.2C803.033 21.064 804.193 21.496 805.665 21.496C806.673 21.496 807.521 21.24 808.209 20.728C808.913 20.216 809.425 19.48 809.745 18.52H804.537V15.496H813.465V19.312C813.161 20.336 812.641 21.288 811.905 22.168C811.185 23.048 810.265 23.76 809.145 24.304C808.025 24.848 806.761 25.12 805.353 25.12C803.689 25.12 802.201 24.76 800.889 24.04C799.593 23.304 798.577 22.288 797.841 20.992C797.121 19.696 796.761 18.216 796.761 16.552C796.761 14.888 797.121 13.408 797.841 12.112C798.577 10.8 799.593 9.784 800.889 9.064C802.185 8.328 803.665 7.96 805.329 7.96C807.345 7.96 809.041 8.448 810.417 9.424C811.809 10.4 812.729 11.752 813.177 13.48H808.641ZM823.827 25.168C822.243 25.168 820.787 24.8 819.459 24.064C818.147 23.328 817.099 22.304 816.315 20.992C815.547 19.664 815.163 18.176 815.163 16.528C815.163 14.88 815.547 13.4 816.315 12.088C817.099 10.776 818.147 9.752 819.459 9.016C820.787 8.28 822.243 7.912 823.827 7.912C825.411 7.912 826.859 8.28 828.171 9.016C829.499 9.752 830.539 10.776 831.291 12.088C832.059 13.4 832.443 14.88 832.443 16.528C832.443 18.176 832.059 19.664 831.291 20.992C830.523 22.304 829.483 23.328 828.171 24.064C826.859 24.8 825.411 25.168 823.827 25.168ZM823.827 21.424C825.171 21.424 826.243 20.976 827.043 20.08C827.859 19.184 828.267 18 828.267 16.528C828.267 15.04 827.859 13.856 827.043 12.976C826.243 12.08 825.171 11.632 823.827 11.632C822.467 11.632 821.379 12.072 820.563 12.952C819.763 13.832 819.363 15.024 819.363 16.528C819.363 18.016 819.763 19.208 820.563 20.104C821.379 20.984 822.467 21.424 823.827 21.424Z" fill="#282938"/>
<path fill-rule="evenodd" clip-rule="evenodd" d="M722.82 4.46436C723.104 4.55374 723.352 4.73146 723.529 4.97166C723.705 5.21186 723.8 5.50203 723.8 5.79996V12.8H729.4C729.656 12.7998 729.907 12.87 730.126 13.0027C730.345 13.1355 730.524 13.3257 730.642 13.5528C730.76 13.7799 730.814 14.0351 730.798 14.2906C730.781 14.5462 730.695 14.7923 730.548 15.0022L720.748 29.0022C720.577 29.2465 720.333 29.4301 720.051 29.5261C719.769 29.6222 719.464 29.6257 719.18 29.5362C718.895 29.4467 718.647 29.2689 718.471 29.0286C718.295 28.7882 718.2 28.498 718.2 28.2V21.2H712.6C712.344 21.2001 712.093 21.1299 711.874 20.9972C711.655 20.8645 711.476 20.6742 711.358 20.4471C711.24 20.22 711.186 19.9648 711.202 19.7093C711.219 19.4537 711.305 19.2076 711.452 18.9978L721.252 4.99776C721.423 4.75386 721.667 4.57078 721.949 4.47511C722.231 4.37944 722.536 4.37616 722.82 4.46576V4.46436Z" fill="black"/>
</svg>
