<svg width="416" height="71" viewBox="0 0 416 71" fill="none" xmlns="http://www.w3.org/2000/svg">
<path d="M3.104 30.944C5.152 29.2373 6.784 27.8187 8 26.688C9.216 25.536 10.2293 24.3413 11.04 23.104C11.8507 21.8667 12.256 20.6507 12.256 19.456C12.256 18.368 12 17.5147 11.488 16.896C10.976 16.2773 10.1867 15.968 9.12 15.968C8.05333 15.968 7.232 16.3307 6.656 17.056C6.08 17.76 5.78133 18.7307 5.76 19.968H1.408C1.49333 17.408 2.25067 15.4667 3.68 14.144C5.13067 12.8213 6.96533 12.16 9.184 12.16C11.616 12.16 13.4827 12.8107 14.784 14.112C16.0853 15.392 16.736 17.088 16.736 19.2C16.736 20.864 16.288 22.4533 15.392 23.968C14.496 25.4827 13.472 26.8053 12.32 27.936C11.168 29.0453 9.664 30.3893 7.808 31.968H17.248V35.68H1.44V32.352L3.104 30.944ZM19.687 16.8V12.672H27.399V36H22.791V16.8H19.687ZM34.4808 36.224C33.6701 36.224 32.9981 35.9787 32.4647 35.488C31.9527 34.976 31.6967 34.3467 31.6967 33.6C31.6967 32.8533 31.9527 32.2347 32.4647 31.744C32.9981 31.232 33.6701 30.976 34.4808 30.976C35.2701 30.976 35.9207 31.232 36.4327 31.744C36.9447 32.2347 37.2007 32.8533 37.2007 33.6C37.2007 34.3467 36.9447 34.976 36.4327 35.488C35.9207 35.9787 35.2701 36.224 34.4808 36.224ZM40.4572 24.032C40.4572 20.3413 41.1186 17.4507 42.4412 15.36C43.7852 13.2693 46.0039 12.224 49.0972 12.224C52.1906 12.224 54.3986 13.2693 55.7213 15.36C57.0653 17.4507 57.7373 20.3413 57.7373 24.032C57.7373 27.744 57.0653 30.656 55.7213 32.768C54.3986 34.88 52.1906 35.936 49.0972 35.936C46.0039 35.936 43.7852 34.88 42.4412 32.768C41.1186 30.656 40.4572 27.744 40.4572 24.032ZM53.3212 24.032C53.3212 22.4533 53.2146 21.1307 53.0013 20.064C52.8093 18.976 52.4039 18.0907 51.7852 17.408C51.1879 16.7253 50.2919 16.384 49.0972 16.384C47.9026 16.384 46.9959 16.7253 46.3772 17.408C45.7799 18.0907 45.3746 18.976 45.1612 20.064C44.9692 21.1307 44.8733 22.4533 44.8733 24.032C44.8733 25.6533 44.9692 27.0187 45.1612 28.128C45.3532 29.216 45.7586 30.1013 46.3772 30.784C46.9959 31.4453 47.9026 31.776 49.0972 31.776C50.2919 31.776 51.1986 31.4453 51.8173 30.784C52.4359 30.1013 52.8412 29.216 53.0332 28.128C53.2252 27.0187 53.3212 25.6533 53.3212 24.032ZM61.3047 24.032C61.3047 20.3413 61.9661 17.4507 63.2887 15.36C64.6327 13.2693 66.8514 12.224 69.9447 12.224C73.0381 12.224 75.2461 13.2693 76.5688 15.36C77.9128 17.4507 78.5848 20.3413 78.5848 24.032C78.5848 27.744 77.9128 30.656 76.5688 32.768C75.2461 34.88 73.0381 35.936 69.9447 35.936C66.8514 35.936 64.6327 34.88 63.2887 32.768C61.9661 30.656 61.3047 27.744 61.3047 24.032ZM74.1687 24.032C74.1687 22.4533 74.0621 21.1307 73.8488 20.064C73.6568 18.976 73.2514 18.0907 72.6327 17.408C72.0354 16.7253 71.1394 16.384 69.9447 16.384C68.7501 16.384 67.8434 16.7253 67.2247 17.408C66.6274 18.0907 66.2221 18.976 66.0087 20.064C65.8167 21.1307 65.7207 22.4533 65.7207 24.032C65.7207 25.6533 65.8167 27.0187 66.0087 28.128C66.2007 29.216 66.6061 30.1013 67.2247 30.784C67.8434 31.4453 68.7501 31.776 69.9447 31.776C71.1394 31.776 72.0461 31.4453 72.6648 30.784C73.2834 30.1013 73.6887 29.216 73.8807 28.128C74.0727 27.0187 74.1687 25.6533 74.1687 24.032ZM82.1523 24.032C82.1523 20.3413 82.8136 17.4507 84.1363 15.36C85.4803 13.2693 87.6989 12.224 90.7923 12.224C93.8856 12.224 96.0936 13.2693 97.4163 15.36C98.7603 17.4507 99.4323 20.3413 99.4323 24.032C99.4323 27.744 98.7603 30.656 97.4163 32.768C96.0936 34.88 93.8856 35.936 90.7923 35.936C87.6989 35.936 85.4803 34.88 84.1363 32.768C82.8136 30.656 82.1523 27.744 82.1523 24.032ZM95.0163 24.032C95.0163 22.4533 94.9096 21.1307 94.6963 20.064C94.5043 18.976 94.0989 18.0907 93.4803 17.408C92.8829 16.7253 91.9869 16.384 90.7923 16.384C89.5976 16.384 88.6909 16.7253 88.0723 17.408C87.4749 18.0907 87.0696 18.976 86.8563 20.064C86.6643 21.1307 86.5683 22.4533 86.5683 24.032C86.5683 25.6533 86.6643 27.0187 86.8563 28.128C87.0483 29.216 87.4536 30.1013 88.0723 30.784C88.6909 31.4453 89.5976 31.776 90.7923 31.776C91.9869 31.776 92.8936 31.4453 93.5123 30.784C94.1309 30.1013 94.5363 29.216 94.7283 28.128C94.9203 27.0187 95.0163 25.6533 95.0163 24.032ZM120.248 26.56H114.2V32.768H109.976V26.56H103.928V22.656H109.976V16.448H114.2V22.656H120.248V26.56Z" fill="#282938"/>
<path opacity="0.7" d="M4.768 65.112C4.032 65.112 3.37067 64.984 2.784 64.728C2.208 64.4613 1.75467 64.0987 1.424 63.64C1.09333 63.1707 0.922667 62.632 0.912 62.024H2.464C2.51733 62.5467 2.73067 62.9893 3.104 63.352C3.488 63.704 4.04267 63.88 4.768 63.88C5.46133 63.88 6.00533 63.7093 6.4 63.368C6.80533 63.016 7.008 62.568 7.008 62.024C7.008 61.5973 6.89067 61.2507 6.656 60.984C6.42133 60.7173 6.128 60.5147 5.776 60.376C5.424 60.2373 4.94933 60.088 4.352 59.928C3.616 59.736 3.024 59.544 2.576 59.352C2.13867 59.16 1.76 58.8613 1.44 58.456C1.13067 58.04 0.976 57.4853 0.976 56.792C0.976 56.184 1.13067 55.6453 1.44 55.176C1.74933 54.7067 2.18133 54.344 2.736 54.088C3.30133 53.832 3.94667 53.704 4.672 53.704C5.71733 53.704 6.57067 53.9653 7.232 54.488C7.904 55.0107 8.28267 55.704 8.368 56.568H6.768C6.71467 56.1413 6.49067 55.768 6.096 55.448C5.70133 55.1173 5.17867 54.952 4.528 54.952C3.92 54.952 3.424 55.112 3.04 55.432C2.656 55.7413 2.464 56.1787 2.464 56.744C2.464 57.1493 2.576 57.48 2.8 57.736C3.03467 57.992 3.31733 58.1893 3.648 58.328C3.98933 58.456 4.464 58.6053 5.072 58.776C5.808 58.9787 6.4 59.1813 6.848 59.384C7.296 59.576 7.68 59.88 8 60.296C8.32 60.7013 8.48 61.256 8.48 61.96C8.48 62.504 8.336 63.016 8.048 63.496C7.76 63.976 7.33333 64.3653 6.768 64.664C6.20267 64.9627 5.536 65.112 4.768 65.112ZM11.3746 54.808C11.0973 54.808 10.8626 54.712 10.6706 54.52C10.4786 54.328 10.3826 54.0933 10.3826 53.816C10.3826 53.5387 10.4786 53.304 10.6706 53.112C10.8626 52.92 11.0973 52.824 11.3746 52.824C11.6413 52.824 11.8653 52.92 12.0466 53.112C12.2386 53.304 12.3346 53.5387 12.3346 53.816C12.3346 54.0933 12.2386 54.328 12.0466 54.52C11.8653 54.712 11.6413 54.808 11.3746 54.808ZM12.0786 56.232V65H10.6226V56.232H12.0786ZM17.6641 65.144C16.9921 65.144 16.3895 65.032 15.8561 64.808C15.3228 64.5733 14.9015 64.2533 14.5921 63.848C14.2828 63.432 14.1121 62.9573 14.0801 62.424H15.5841C15.6268 62.8613 15.8295 63.2187 16.1921 63.496C16.5655 63.7733 17.0508 63.912 17.6481 63.912C18.2028 63.912 18.6401 63.7893 18.9601 63.544C19.2801 63.2987 19.4401 62.9893 19.4401 62.616C19.4401 62.232 19.2695 61.9493 18.9281 61.768C18.5868 61.576 18.0588 61.3893 17.3441 61.208C16.6935 61.0373 16.1601 60.8667 15.7441 60.696C15.3388 60.5147 14.9868 60.2533 14.6881 59.912C14.4001 59.56 14.2561 59.1013 14.2561 58.536C14.2561 58.088 14.3895 57.6773 14.6561 57.304C14.9228 56.9307 15.3015 56.6373 15.7921 56.424C16.2828 56.2 16.8428 56.088 17.4721 56.088C18.4428 56.088 19.2268 56.3333 19.8241 56.824C20.4215 57.3147 20.7415 57.9867 20.7841 58.84H19.3281C19.2961 58.3813 19.1095 58.0133 18.7681 57.736C18.4375 57.4587 17.9895 57.32 17.4241 57.32C16.9015 57.32 16.4855 57.432 16.1761 57.656C15.8668 57.88 15.7121 58.1733 15.7121 58.536C15.7121 58.824 15.8028 59.064 15.9841 59.256C16.1761 59.4373 16.4108 59.5867 16.6881 59.704C16.9761 59.8107 17.3708 59.9333 17.8721 60.072C18.5015 60.2427 19.0135 60.4133 19.4081 60.584C19.8028 60.744 20.1388 60.9893 20.4161 61.32C20.7041 61.6507 20.8535 62.0827 20.8641 62.616C20.8641 63.096 20.7308 63.528 20.4641 63.912C20.1975 64.296 19.8188 64.6 19.3281 64.824C18.8481 65.0373 18.2935 65.144 17.6641 65.144ZM34.5995 56.232L31.8635 65H30.3595L28.2475 58.04L26.1355 65H24.6315L21.8795 56.232H23.3675L25.3835 63.592L27.5595 56.232H29.0475L31.1755 63.608L33.1595 56.232H34.5995ZM35.5005 60.584C35.5005 59.688 35.6818 58.904 36.0445 58.232C36.4072 57.5493 36.9032 57.0213 37.5325 56.648C38.1725 56.2747 38.8818 56.088 39.6605 56.088C40.4285 56.088 41.0952 56.2533 41.6605 56.584C42.2258 56.9147 42.6472 57.3307 42.9245 57.832V56.232H44.3965V65H42.9245V63.368C42.6365 63.88 42.2045 64.3067 41.6285 64.648C41.0632 64.9787 40.4018 65.144 39.6445 65.144C38.8658 65.144 38.1618 64.952 37.5325 64.568C36.9032 64.184 36.4072 63.6453 36.0445 62.952C35.6818 62.2587 35.5005 61.4693 35.5005 60.584ZM42.9245 60.6C42.9245 59.9387 42.7912 59.3627 42.5245 58.872C42.2578 58.3813 41.8952 58.008 41.4365 57.752C40.9885 57.4853 40.4925 57.352 39.9485 57.352C39.4045 57.352 38.9085 57.48 38.4605 57.736C38.0125 57.992 37.6552 58.3653 37.3885 58.856C37.1218 59.3467 36.9885 59.9227 36.9885 60.584C36.9885 61.256 37.1218 61.8427 37.3885 62.344C37.6552 62.8347 38.0125 63.2133 38.4605 63.48C38.9085 63.736 39.4045 63.864 39.9485 63.864C40.4925 63.864 40.9885 63.736 41.4365 63.48C41.8952 63.2133 42.2578 62.8347 42.5245 62.344C42.7912 61.8427 42.9245 61.2613 42.9245 60.6ZM52.8986 57.432V62.6C52.8986 63.0267 52.9893 63.3307 53.1706 63.512C53.352 63.6827 53.6666 63.768 54.1146 63.768H55.1866V65H53.8746C53.064 65 52.456 64.8133 52.0506 64.44C51.6453 64.0667 51.4426 63.4533 51.4426 62.6V57.432H50.3066V56.232H51.4426V54.024H52.8986V56.232H55.1866V57.432H52.8986ZM64.9508 60.28C64.9508 60.5573 64.9348 60.8507 64.9028 61.16H57.8948C57.9481 62.024 58.2414 62.7013 58.7748 63.192C59.3188 63.672 59.9748 63.912 60.7428 63.912C61.3721 63.912 61.8948 63.768 62.3108 63.48C62.7374 63.1813 63.0361 62.7867 63.2068 62.296H64.7748C64.5401 63.1387 64.0708 63.8267 63.3668 64.36C62.6628 64.8827 61.7881 65.144 60.7428 65.144C59.9108 65.144 59.1641 64.9573 58.5028 64.584C57.8521 64.2107 57.3401 63.6827 56.9668 63C56.5934 62.3067 56.4068 61.5067 56.4068 60.6C56.4068 59.6933 56.5881 58.8987 56.9508 58.216C57.3134 57.5333 57.8201 57.0107 58.4708 56.648C59.1321 56.2747 59.8894 56.088 60.7428 56.088C61.5748 56.088 62.3108 56.2693 62.9508 56.632C63.5908 56.9947 64.0814 57.496 64.4228 58.136C64.7748 58.7653 64.9508 59.48 64.9508 60.28ZM63.4468 59.976C63.4468 59.4213 63.3241 58.9467 63.0788 58.552C62.8334 58.1467 62.4974 57.8427 62.0708 57.64C61.6548 57.4267 61.1908 57.32 60.6788 57.32C59.9428 57.32 59.3134 57.5547 58.7908 58.024C58.2788 58.4933 57.9854 59.144 57.9108 59.976H63.4468ZM68.3286 57.656C68.5846 57.1547 68.9473 56.7653 69.4166 56.488C69.8966 56.2107 70.478 56.072 71.1606 56.072V57.576H70.7766C69.1446 57.576 68.3286 58.4613 68.3286 60.232V65H66.8726V56.232H68.3286V57.656ZM72.2974 60.584C72.2974 59.688 72.4787 58.904 72.8414 58.232C73.204 57.5493 73.7 57.0213 74.3294 56.648C74.9694 56.2747 75.684 56.088 76.4734 56.088C77.156 56.088 77.7907 56.248 78.3774 56.568C78.964 56.8773 79.412 57.288 79.7214 57.8V53.16H81.1934V65H79.7214V63.352C79.4334 63.8747 79.0067 64.3067 78.4414 64.648C77.876 64.9787 77.2147 65.144 76.4574 65.144C75.6787 65.144 74.9694 64.952 74.3294 64.568C73.7 64.184 73.204 63.6453 72.8414 62.952C72.4787 62.2587 72.2974 61.4693 72.2974 60.584ZM79.7214 60.6C79.7214 59.9387 79.588 59.3627 79.3214 58.872C79.0547 58.3813 78.692 58.008 78.2334 57.752C77.7854 57.4853 77.2894 57.352 76.7454 57.352C76.2014 57.352 75.7054 57.48 75.2574 57.736C74.8094 57.992 74.452 58.3653 74.1854 58.856C73.9187 59.3467 73.7854 59.9227 73.7854 60.584C73.7854 61.256 73.9187 61.8427 74.1854 62.344C74.452 62.8347 74.8094 63.2133 75.2574 63.48C75.7054 63.736 76.2014 63.864 76.7454 63.864C77.2894 63.864 77.7854 63.736 78.2334 63.48C78.692 63.2133 79.0547 62.8347 79.3214 62.344C79.588 61.8427 79.7214 61.2613 79.7214 60.6ZM83.1099 60.584C83.1099 59.688 83.2912 58.904 83.6539 58.232C84.0165 57.5493 84.5125 57.0213 85.1419 56.648C85.7819 56.2747 86.4912 56.088 87.2699 56.088C88.0379 56.088 88.7045 56.2533 89.2699 56.584C89.8352 56.9147 90.2565 57.3307 90.5339 57.832V56.232H92.0059V65H90.5339V63.368C90.2459 63.88 89.8139 64.3067 89.2379 64.648C88.6725 64.9787 88.0112 65.144 87.2539 65.144C86.4752 65.144 85.7712 64.952 85.1419 64.568C84.5125 64.184 84.0165 63.6453 83.6539 62.952C83.2912 62.2587 83.1099 61.4693 83.1099 60.584ZM90.5339 60.6C90.5339 59.9387 90.4005 59.3627 90.1339 58.872C89.8672 58.3813 89.5045 58.008 89.0459 57.752C88.5979 57.4853 88.1019 57.352 87.5579 57.352C87.0139 57.352 86.5179 57.48 86.0699 57.736C85.6219 57.992 85.2645 58.3653 84.9979 58.856C84.7312 59.3467 84.5979 59.9227 84.5979 60.584C84.5979 61.256 84.7312 61.8427 84.9979 62.344C85.2645 62.8347 85.6219 63.2133 86.0699 63.48C86.5179 63.736 87.0139 63.864 87.5579 63.864C88.1019 63.864 88.5979 63.736 89.0459 63.48C89.5045 63.2133 89.8672 62.8347 90.1339 62.344C90.4005 61.8427 90.5339 61.2613 90.5339 60.6ZM98.0344 57.432H96.1944V65H94.7384V57.432H93.6024V56.232H94.7384V55.608C94.7384 54.6267 94.989 53.912 95.4904 53.464C96.0024 53.0053 96.8184 52.776 97.9384 52.776V53.992C97.2984 53.992 96.845 54.12 96.5784 54.376C96.3224 54.6213 96.1944 55.032 96.1944 55.608V56.232H98.0344V57.432ZM101.508 57.432V62.6C101.508 63.0267 101.599 63.3307 101.78 63.512C101.961 63.6827 102.276 63.768 102.724 63.768H103.796V65H102.484C101.673 65 101.065 64.8133 100.66 64.44C100.255 64.0667 100.052 63.4533 100.052 62.6V57.432H98.916V56.232H100.052V54.024H101.508V56.232H103.796V57.432H101.508ZM105.016 60.584C105.016 59.688 105.197 58.904 105.56 58.232C105.923 57.5493 106.419 57.0213 107.048 56.648C107.688 56.2747 108.397 56.088 109.176 56.088C109.944 56.088 110.611 56.2533 111.176 56.584C111.741 56.9147 112.163 57.3307 112.44 57.832V56.232H113.912V65H112.44V63.368C112.152 63.88 111.72 64.3067 111.144 64.648C110.579 64.9787 109.917 65.144 109.16 65.144C108.381 65.144 107.677 64.952 107.048 64.568C106.419 64.184 105.923 63.6453 105.56 62.952C105.197 62.2587 105.016 61.4693 105.016 60.584ZM112.44 60.6C112.44 59.9387 112.307 59.3627 112.04 58.872C111.773 58.3813 111.411 58.008 110.952 57.752C110.504 57.4853 110.008 57.352 109.464 57.352C108.92 57.352 108.424 57.48 107.976 57.736C107.528 57.992 107.171 58.3653 106.904 58.856C106.637 59.3467 106.504 59.9227 106.504 60.584C106.504 61.256 106.637 61.8427 106.904 62.344C107.171 62.8347 107.528 63.2133 107.976 63.48C108.424 63.736 108.92 63.864 109.464 63.864C110.008 63.864 110.504 63.736 110.952 63.48C111.411 63.2133 111.773 62.8347 112.04 62.344C112.307 61.8427 112.44 61.2613 112.44 60.6ZM117.829 57.656C118.085 57.1547 118.447 56.7653 118.917 56.488C119.397 56.2107 119.978 56.072 120.661 56.072V57.576H120.277C118.645 57.576 117.829 58.4613 117.829 60.232V65H116.373V56.232H117.829V57.656Z" fill="#282938"/>
<path d="M164.152 16.8V12.672H171.864V36H167.256V16.8H164.152ZM176.45 24.032C176.45 20.3413 177.111 17.4507 178.434 15.36C179.778 13.2693 181.996 12.224 185.09 12.224C188.183 12.224 190.391 13.2693 191.714 15.36C193.058 17.4507 193.73 20.3413 193.73 24.032C193.73 27.744 193.058 30.656 191.714 32.768C190.391 34.88 188.183 35.936 185.09 35.936C181.996 35.936 179.778 34.88 178.434 32.768C177.111 30.656 176.45 27.744 176.45 24.032ZM189.314 24.032C189.314 22.4533 189.207 21.1307 188.994 20.064C188.802 18.976 188.396 18.0907 187.778 17.408C187.18 16.7253 186.284 16.384 185.09 16.384C183.895 16.384 182.988 16.7253 182.37 17.408C181.772 18.0907 181.367 18.976 181.154 20.064C180.962 21.1307 180.866 22.4533 180.866 24.032C180.866 25.6533 180.962 27.0187 181.154 28.128C181.346 29.216 181.751 30.1013 182.37 30.784C182.988 31.4453 183.895 31.776 185.09 31.776C186.284 31.776 187.191 31.4453 187.81 30.784C188.428 30.1013 188.834 29.216 189.026 28.128C189.218 27.0187 189.314 25.6533 189.314 24.032ZM197.297 24.032C197.297 20.3413 197.959 17.4507 199.281 15.36C200.625 13.2693 202.844 12.224 205.937 12.224C209.031 12.224 211.239 13.2693 212.561 15.36C213.905 17.4507 214.577 20.3413 214.577 24.032C214.577 27.744 213.905 30.656 212.561 32.768C211.239 34.88 209.031 35.936 205.937 35.936C202.844 35.936 200.625 34.88 199.281 32.768C197.959 30.656 197.297 27.744 197.297 24.032ZM210.161 24.032C210.161 22.4533 210.055 21.1307 209.841 20.064C209.649 18.976 209.244 18.0907 208.625 17.408C208.028 16.7253 207.132 16.384 205.937 16.384C204.743 16.384 203.836 16.7253 203.217 17.408C202.62 18.0907 202.215 18.976 202.001 20.064C201.809 21.1307 201.713 22.4533 201.713 24.032C201.713 25.6533 201.809 27.0187 202.001 28.128C202.193 29.216 202.599 30.1013 203.217 30.784C203.836 31.4453 204.743 31.776 205.937 31.776C207.132 31.776 208.039 31.4453 208.657 30.784C209.276 30.1013 209.681 29.216 209.873 28.128C210.065 27.0187 210.161 25.6533 210.161 24.032ZM235.393 26.56H229.345V32.768H225.121V26.56H219.073V22.656H225.121V16.448H229.345V22.656H235.393V26.56Z" fill="#282938"/>
<path opacity="0.7" d="M165.688 53.848V65H164.232V53.848H165.688ZM172.442 56.072C173.508 56.072 174.372 56.3973 175.034 57.048C175.695 57.688 176.026 58.616 176.026 59.832V65H174.586V60.04C174.586 59.1653 174.367 58.4987 173.93 58.04C173.492 57.5707 172.895 57.336 172.138 57.336C171.37 57.336 170.756 57.576 170.298 58.056C169.85 58.536 169.626 59.2347 169.626 60.152V65H168.17V56.232H169.626V57.48C169.914 57.032 170.303 56.6853 170.794 56.44C171.295 56.1947 171.844 56.072 172.442 56.072ZM181.508 65.144C180.836 65.144 180.233 65.032 179.7 64.808C179.167 64.5733 178.745 64.2533 178.436 63.848C178.127 63.432 177.956 62.9573 177.924 62.424H179.428C179.471 62.8613 179.673 63.2187 180.036 63.496C180.409 63.7733 180.895 63.912 181.492 63.912C182.047 63.912 182.484 63.7893 182.804 63.544C183.124 63.2987 183.284 62.9893 183.284 62.616C183.284 62.232 183.113 61.9493 182.772 61.768C182.431 61.576 181.903 61.3893 181.188 61.208C180.537 61.0373 180.004 60.8667 179.588 60.696C179.183 60.5147 178.831 60.2533 178.532 59.912C178.244 59.56 178.1 59.1013 178.1 58.536C178.1 58.088 178.233 57.6773 178.5 57.304C178.767 56.9307 179.145 56.6373 179.636 56.424C180.127 56.2 180.687 56.088 181.316 56.088C182.287 56.088 183.071 56.3333 183.668 56.824C184.265 57.3147 184.585 57.9867 184.628 58.84H183.172C183.14 58.3813 182.953 58.0133 182.612 57.736C182.281 57.4587 181.833 57.32 181.268 57.32C180.745 57.32 180.329 57.432 180.02 57.656C179.711 57.88 179.556 58.1733 179.556 58.536C179.556 58.824 179.647 59.064 179.828 59.256C180.02 59.4373 180.255 59.5867 180.532 59.704C180.82 59.8107 181.215 59.9333 181.716 60.072C182.345 60.2427 182.857 60.4133 183.252 60.584C183.647 60.744 183.983 60.9893 184.26 61.32C184.548 61.6507 184.697 62.0827 184.708 62.616C184.708 63.096 184.575 63.528 184.308 63.912C184.041 64.296 183.663 64.6 183.172 64.824C182.692 65.0373 182.137 65.144 181.508 65.144ZM188.539 57.432V62.6C188.539 63.0267 188.63 63.3307 188.811 63.512C188.993 63.6827 189.307 63.768 189.755 63.768H190.827V65H189.515C188.705 65 188.097 64.8133 187.691 64.44C187.286 64.0667 187.083 63.4533 187.083 62.6V57.432H185.947V56.232H187.083V54.024H188.539V56.232H190.827V57.432H188.539ZM194.047 57.656C194.303 57.1547 194.666 56.7653 195.135 56.488C195.615 56.2107 196.197 56.072 196.879 56.072V57.576H196.495C194.863 57.576 194.047 58.4613 194.047 60.232V65H192.591V56.232H194.047V57.656ZM206.336 56.232V65H204.88V63.704C204.603 64.152 204.213 64.504 203.712 64.76C203.221 65.0053 202.677 65.128 202.08 65.128C201.397 65.128 200.784 64.9893 200.24 64.712C199.696 64.424 199.264 63.9973 198.944 63.432C198.635 62.8667 198.48 62.1787 198.48 61.368V56.232H199.92V61.176C199.92 62.04 200.139 62.7067 200.576 63.176C201.013 63.6347 201.611 63.864 202.368 63.864C203.147 63.864 203.76 63.624 204.208 63.144C204.656 62.664 204.88 61.9653 204.88 61.048V56.232H206.336ZM213.691 65L210.251 61.128V65H208.795V53.16H210.251V60.12L213.627 56.232H215.659L211.531 60.6L215.675 65H213.691ZM218.805 57.432V62.6C218.805 63.0267 218.896 63.3307 219.077 63.512C219.258 63.6827 219.573 63.768 220.021 63.768H221.093V65H219.781C218.97 65 218.362 64.8133 217.957 64.44C217.552 64.0667 217.349 63.4533 217.349 62.6V57.432H216.213V56.232H217.349V54.024H218.805V56.232H221.093V57.432H218.805ZM230.633 56.232V65H229.177V63.704C228.9 64.152 228.51 64.504 228.009 64.76C227.518 65.0053 226.974 65.128 226.377 65.128C225.694 65.128 225.081 64.9893 224.537 64.712C223.993 64.424 223.561 63.9973 223.241 63.432C222.932 62.8667 222.777 62.1787 222.777 61.368V56.232H224.217V61.176C224.217 62.04 224.436 62.7067 224.873 63.176C225.31 63.6347 225.908 63.864 226.665 63.864C227.444 63.864 228.057 63.624 228.505 63.144C228.953 62.664 229.177 61.9653 229.177 61.048V56.232H230.633ZM234.547 57.656C234.803 57.1547 235.166 56.7653 235.635 56.488C236.115 56.2107 236.697 56.072 237.379 56.072V57.576H236.995C235.363 57.576 234.547 58.4613 234.547 60.232V65H233.091V56.232H234.547V57.656ZM249.918 62.52H245.054L244.158 65H242.622L246.654 53.912H248.334L252.35 65H250.814L249.918 62.52ZM249.502 61.336L247.486 55.704L245.47 61.336H249.502ZM258.459 56.072C259.12 56.072 259.718 56.216 260.251 56.504C260.784 56.7813 261.2 57.2027 261.499 57.768C261.808 58.3333 261.963 59.0213 261.963 59.832V65H260.523V60.04C260.523 59.1653 260.304 58.4987 259.867 58.04C259.43 57.5707 258.832 57.336 258.075 57.336C257.307 57.336 256.694 57.576 256.235 58.056C255.787 58.536 255.563 59.2347 255.563 60.152V65H254.107V53.16H255.563V57.48C255.851 57.032 256.246 56.6853 256.747 56.44C257.259 56.1947 257.83 56.072 258.459 56.072ZM265.797 53.16V65H264.341V53.16H265.797ZM269.031 54.808C268.754 54.808 268.519 54.712 268.327 54.52C268.135 54.328 268.039 54.0933 268.039 53.816C268.039 53.5387 268.135 53.304 268.327 53.112C268.519 52.92 268.754 52.824 269.031 52.824C269.298 52.824 269.522 52.92 269.703 53.112C269.895 53.304 269.991 53.5387 269.991 53.816C269.991 54.0933 269.895 54.328 269.703 54.52C269.522 54.712 269.298 54.808 269.031 54.808ZM269.735 56.232V65H268.279V56.232H269.735Z" fill="#282938"/>
<path d="M312.152 14.8V10.672H319.864V34H315.256V14.8H312.152ZM340.13 14.544H329.762V20.016C330.21 19.4613 330.85 19.0133 331.682 18.672C332.514 18.3093 333.399 18.128 334.338 18.128C336.044 18.128 337.442 18.5013 338.53 19.248C339.618 19.9947 340.407 20.9547 340.898 22.128C341.388 23.28 341.634 24.5173 341.634 25.84C341.634 28.2933 340.93 30.2667 339.522 31.76C338.135 33.2533 336.151 34 333.57 34C331.138 34 329.196 33.392 327.746 32.176C326.295 30.96 325.474 29.3707 325.282 27.408H329.634C329.826 28.2613 330.252 28.944 330.914 29.456C331.596 29.968 332.46 30.224 333.506 30.224C334.764 30.224 335.714 29.8293 336.354 29.04C336.994 28.2507 337.314 27.2053 337.314 25.904C337.314 24.5813 336.983 23.5787 336.322 22.896C335.682 22.192 334.732 21.84 333.474 21.84C332.578 21.84 331.831 22.064 331.234 22.512C330.636 22.96 330.21 23.5573 329.954 24.304H325.666V10.608H340.13V14.544ZM345.203 22.032C345.203 18.3413 345.865 15.4507 347.187 13.36C348.531 11.2693 350.75 10.224 353.844 10.224C356.937 10.224 359.145 11.2693 360.468 13.36C361.812 15.4507 362.484 18.3413 362.484 22.032C362.484 25.744 361.812 28.656 360.468 30.768C359.145 32.88 356.937 33.936 353.844 33.936C350.75 33.936 348.531 32.88 347.187 30.768C345.865 28.656 345.203 25.744 345.203 22.032ZM358.068 22.032C358.068 20.4533 357.961 19.1307 357.748 18.064C357.556 16.976 357.15 16.0907 356.531 15.408C355.934 14.7253 355.038 14.384 353.844 14.384C352.649 14.384 351.742 14.7253 351.123 15.408C350.526 16.0907 350.121 16.976 349.907 18.064C349.716 19.1307 349.62 20.4533 349.62 22.032C349.62 23.6533 349.716 25.0187 349.907 26.128C350.099 27.216 350.505 28.1013 351.123 28.784C351.742 29.4453 352.649 29.776 353.844 29.776C355.038 29.776 355.945 29.4453 356.564 28.784C357.182 28.1013 357.587 27.216 357.78 26.128C357.972 25.0187 358.068 23.6533 358.068 22.032ZM383.299 24.56H377.251V30.768H373.027V24.56H366.979V20.656H373.027V14.448H377.251V20.656H383.299V24.56Z" fill="#282938"/>
<path opacity="0.7" d="M318.28 63L313.688 57.912V63H312.232V51.848H313.688V57.016L318.296 51.848H320.136L315.08 57.432L320.184 63H318.28ZM329.586 54.232V63H328.13V61.704C327.853 62.152 327.463 62.504 326.962 62.76C326.471 63.0053 325.927 63.128 325.33 63.128C324.647 63.128 324.034 62.9893 323.49 62.712C322.946 62.424 322.514 61.9973 322.194 61.432C321.885 60.8667 321.73 60.1787 321.73 59.368V54.232H323.17V59.176C323.17 60.04 323.389 60.7067 323.826 61.176C324.263 61.6347 324.861 61.864 325.618 61.864C326.397 61.864 327.01 61.624 327.458 61.144C327.906 60.664 328.13 59.9653 328.13 59.048V54.232H329.586ZM333.501 55.656C333.757 55.1547 334.119 54.7653 334.589 54.488C335.069 54.2107 335.65 54.072 336.333 54.072V55.576H335.949C334.317 55.576 333.501 56.4613 333.501 58.232V63H332.045V54.232H333.501V55.656ZM341.117 63.144C340.445 63.144 339.843 63.032 339.309 62.808C338.776 62.5733 338.355 62.2533 338.045 61.848C337.736 61.432 337.565 60.9573 337.533 60.424H339.037C339.08 60.8613 339.283 61.2187 339.645 61.496C340.019 61.7733 340.504 61.912 341.101 61.912C341.656 61.912 342.093 61.7893 342.413 61.544C342.733 61.2987 342.893 60.9893 342.893 60.616C342.893 60.232 342.723 59.9493 342.381 59.768C342.04 59.576 341.512 59.3893 340.797 59.208C340.147 59.0373 339.613 58.8667 339.197 58.696C338.792 58.5147 338.44 58.2533 338.141 57.912C337.853 57.56 337.709 57.1013 337.709 56.536C337.709 56.088 337.843 55.6773 338.109 55.304C338.376 54.9307 338.755 54.6373 339.245 54.424C339.736 54.2 340.296 54.088 340.925 54.088C341.896 54.088 342.68 54.3333 343.277 54.824C343.875 55.3147 344.195 55.9867 344.237 56.84H342.781C342.749 56.3813 342.563 56.0133 342.221 55.736C341.891 55.4587 341.443 55.32 340.877 55.32C340.355 55.32 339.939 55.432 339.629 55.656C339.32 55.88 339.165 56.1733 339.165 56.536C339.165 56.824 339.256 57.064 339.437 57.256C339.629 57.4373 339.864 57.5867 340.141 57.704C340.429 57.8107 340.824 57.9333 341.325 58.072C341.955 58.2427 342.467 58.4133 342.861 58.584C343.256 58.744 343.592 58.9893 343.869 59.32C344.157 59.6507 344.307 60.0827 344.317 60.616C344.317 61.096 344.184 61.528 343.917 61.912C343.651 62.296 343.272 62.6 342.781 62.824C342.301 63.0373 341.747 63.144 341.117 63.144ZM354.149 54.232V63H352.693V61.704C352.415 62.152 352.026 62.504 351.525 62.76C351.034 63.0053 350.49 63.128 349.893 63.128C349.21 63.128 348.597 62.9893 348.053 62.712C347.509 62.424 347.077 61.9973 346.757 61.432C346.447 60.8667 346.293 60.1787 346.293 59.368V54.232H347.733V59.176C347.733 60.04 347.951 60.7067 348.389 61.176C348.826 61.6347 349.423 61.864 350.181 61.864C350.959 61.864 351.573 61.624 352.021 61.144C352.469 60.664 352.693 59.9653 352.693 59.048V54.232H354.149ZM359.711 63.144C359.039 63.144 358.436 63.032 357.903 62.808C357.37 62.5733 356.948 62.2533 356.639 61.848C356.33 61.432 356.159 60.9573 356.127 60.424H357.631C357.674 60.8613 357.876 61.2187 358.239 61.496C358.612 61.7733 359.098 61.912 359.695 61.912C360.25 61.912 360.687 61.7893 361.007 61.544C361.327 61.2987 361.487 60.9893 361.487 60.616C361.487 60.232 361.316 59.9493 360.975 59.768C360.634 59.576 360.106 59.3893 359.391 59.208C358.74 59.0373 358.207 58.8667 357.791 58.696C357.386 58.5147 357.034 58.2533 356.735 57.912C356.447 57.56 356.303 57.1013 356.303 56.536C356.303 56.088 356.436 55.6773 356.703 55.304C356.97 54.9307 357.348 54.6373 357.839 54.424C358.33 54.2 358.89 54.088 359.519 54.088C360.49 54.088 361.274 54.3333 361.871 54.824C362.468 55.3147 362.788 55.9867 362.831 56.84H361.375C361.343 56.3813 361.156 56.0133 360.815 55.736C360.484 55.4587 360.036 55.32 359.471 55.32C358.948 55.32 358.532 55.432 358.223 55.656C357.914 55.88 357.759 56.1733 357.759 56.536C357.759 56.824 357.85 57.064 358.031 57.256C358.223 57.4373 358.458 57.5867 358.735 57.704C359.023 57.8107 359.418 57.9333 359.919 58.072C360.548 58.2427 361.06 58.4133 361.455 58.584C361.85 58.744 362.186 58.9893 362.463 59.32C362.751 59.6507 362.9 60.0827 362.911 60.616C362.911 61.096 362.778 61.528 362.511 61.912C362.244 62.296 361.866 62.6 361.375 62.824C360.895 63.0373 360.34 63.144 359.711 63.144ZM377.68 55.08C377.371 54.4293 376.923 53.928 376.336 53.576C375.749 53.2133 375.067 53.032 374.288 53.032C373.509 53.032 372.805 53.2133 372.176 53.576C371.557 53.928 371.067 54.44 370.704 55.112C370.352 55.7733 370.176 56.5413 370.176 57.416C370.176 58.2907 370.352 59.0587 370.704 59.72C371.067 60.3813 371.557 60.8933 372.176 61.256C372.805 61.608 373.509 61.784 374.288 61.784C375.376 61.784 376.272 61.4587 376.976 60.808C377.68 60.1573 378.091 59.2773 378.208 58.168H373.76V56.984H379.76V58.104C379.675 59.0213 379.387 59.864 378.896 60.632C378.405 61.3893 377.76 61.992 376.96 62.44C376.16 62.8773 375.269 63.096 374.288 63.096C373.253 63.096 372.309 62.856 371.456 62.376C370.603 61.8853 369.925 61.208 369.424 60.344C368.933 59.48 368.688 58.504 368.688 57.416C368.688 56.328 368.933 55.352 369.424 54.488C369.925 53.6133 370.603 52.936 371.456 52.456C372.309 51.9653 373.253 51.72 374.288 51.72C375.472 51.72 376.517 52.0133 377.424 52.6C378.341 53.1867 379.008 54.0133 379.424 55.08H377.68ZM383.141 55.656C383.397 55.1547 383.76 54.7653 384.229 54.488C384.709 54.2107 385.29 54.072 385.973 54.072V55.576H385.589C383.957 55.576 383.141 56.4613 383.141 58.232V63H381.685V54.232H383.141V55.656ZM387.11 58.584C387.11 57.688 387.291 56.904 387.654 56.232C388.017 55.5493 388.513 55.0213 389.142 54.648C389.782 54.2747 390.491 54.088 391.27 54.088C392.038 54.088 392.705 54.2533 393.27 54.584C393.835 54.9147 394.257 55.3307 394.534 55.832V54.232H396.006V63H394.534V61.368C394.246 61.88 393.814 62.3067 393.238 62.648C392.673 62.9787 392.011 63.144 391.254 63.144C390.475 63.144 389.771 62.952 389.142 62.568C388.513 62.184 388.017 61.6453 387.654 60.952C387.291 60.2587 387.11 59.4693 387.11 58.584ZM394.534 58.6C394.534 57.9387 394.401 57.3627 394.134 56.872C393.867 56.3813 393.505 56.008 393.046 55.752C392.598 55.4853 392.102 55.352 391.558 55.352C391.014 55.352 390.518 55.48 390.07 55.736C389.622 55.992 389.265 56.3653 388.998 56.856C388.731 57.3467 388.598 57.9227 388.598 58.584C388.598 59.256 388.731 59.8427 388.998 60.344C389.265 60.8347 389.622 61.2133 390.07 61.48C390.518 61.736 391.014 61.864 391.558 61.864C392.102 61.864 392.598 61.736 393.046 61.48C393.505 61.2133 393.867 60.8347 394.134 60.344C394.401 59.8427 394.534 59.2613 394.534 58.6ZM400.242 55.432V60.6C400.242 61.0267 400.333 61.3307 400.514 61.512C400.696 61.6827 401.01 61.768 401.458 61.768H402.53V63H401.218C400.408 63 399.8 62.8133 399.394 62.44C398.989 62.0667 398.786 61.4533 398.786 60.6V55.432H397.65V54.232H398.786V52.024H400.242V54.232H402.53V55.432H400.242ZM405.047 52.808C404.769 52.808 404.535 52.712 404.343 52.52C404.151 52.328 404.055 52.0933 404.055 51.816C404.055 51.5387 404.151 51.304 404.343 51.112C404.535 50.92 404.769 50.824 405.047 50.824C405.313 50.824 405.537 50.92 405.719 51.112C405.911 51.304 406.007 51.5387 406.007 51.816C406.007 52.0933 405.911 52.328 405.719 52.52C405.537 52.712 405.313 52.808 405.047 52.808ZM405.751 54.232V63H404.295V54.232H405.751ZM411.336 63.144C410.664 63.144 410.061 63.032 409.528 62.808C408.995 62.5733 408.573 62.2533 408.264 61.848C407.955 61.432 407.784 60.9573 407.752 60.424H409.256C409.299 60.8613 409.501 61.2187 409.864 61.496C410.237 61.7733 410.723 61.912 411.32 61.912C411.875 61.912 412.312 61.7893 412.632 61.544C412.952 61.2987 413.112 60.9893 413.112 60.616C413.112 60.232 412.941 59.9493 412.6 59.768C412.259 59.576 411.731 59.3893 411.016 59.208C410.365 59.0373 409.832 58.8667 409.416 58.696C409.011 58.5147 408.659 58.2533 408.36 57.912C408.072 57.56 407.928 57.1013 407.928 56.536C407.928 56.088 408.061 55.6773 408.328 55.304C408.595 54.9307 408.973 54.6373 409.464 54.424C409.955 54.2 410.515 54.088 411.144 54.088C412.115 54.088 412.899 54.3333 413.496 54.824C414.093 55.3147 414.413 55.9867 414.456 56.84H413C412.968 56.3813 412.781 56.0133 412.44 55.736C412.109 55.4587 411.661 55.32 411.096 55.32C410.573 55.32 410.157 55.432 409.848 55.656C409.539 55.88 409.384 56.1733 409.384 56.536C409.384 56.824 409.475 57.064 409.656 57.256C409.848 57.4373 410.083 57.5867 410.36 57.704C410.648 57.8107 411.043 57.9333 411.544 58.072C412.173 58.2427 412.685 58.4133 413.08 58.584C413.475 58.744 413.811 58.9893 414.088 59.32C414.376 59.6507 414.525 60.0827 414.536 60.616C414.536 61.096 414.403 61.528 414.136 61.912C413.869 62.296 413.491 62.6 413 62.824C412.52 63.0373 411.965 63.144 411.336 63.144Z" fill="#282938"/>
</svg>
